<svg width="20" height="20" viewBox="0 0 20 20" fill="none" xmlns="http://www.w3.org/2000/svg">
<path d="M17.5119 3.85L11.5719 0.42C10.6019 -0.14 9.40188 -0.14 8.42188 0.42L2.49188 3.85C2.01365 4.12727 1.61681 4.52552 1.34123 5.00472C1.06564 5.48392 0.921017 6.02721 0.921879 6.58V13.42C0.921879 14.54 1.52188 15.58 2.49188 16.15L8.43188 19.58C9.40188 20.14 10.6019 20.14 11.5819 19.58L17.5219 16.15C18.0001 15.8727 18.3969 15.4745 18.6725 14.9953C18.9481 14.5161 19.0927 13.9728 19.0919 13.42V6.58C19.0875 6.02708 18.9396 5.48477 18.6627 5.0062C18.3857 4.52764 17.9891 4.12922 17.5119 3.85ZM10.0019 5.34C11.2919 5.34 12.3319 6.38 12.3319 7.67C12.3319 8.96 11.2919 10 10.0019 10C8.71188 10 7.67188 8.96 7.67188 7.67C7.67188 6.39 8.71188 5.34 10.0019 5.34ZM12.6819 14.66H7.32188C6.51188 14.66 6.04188 13.76 6.49188 13.09C7.17188 12.08 8.49188 11.4 10.0019 11.4C11.5119 11.4 12.8319 12.08 13.5119 13.09C13.9619 13.75 13.4819 14.66 12.6819 14.66Z" fill="#7F56D9"/>
</svg>
