<svg width="27" height="26" viewBox="0 0 27 26" fill="none" xmlns="http://www.w3.org/2000/svg">
<path d="M10.9663 1.49629C12.1444 -0.361871 14.8556 -0.361869 16.0337 1.4963L18.4495 5.30667C18.8586 5.95187 19.4983 6.4167 20.2384 6.60637L24.6088 7.72647C26.7401 8.27269 27.5779 10.8512 26.1747 12.5458L23.2973 16.0209C22.8101 16.6093 22.5657 17.3614 22.614 18.1238L22.8993 22.6265C23.0384 24.8222 20.845 26.4158 18.7997 25.605L14.6056 23.9423C13.8954 23.6608 13.1046 23.6608 12.3944 23.9423L8.2003 25.605C6.155 26.4158 3.96161 24.8222 4.10071 22.6264L4.38597 18.1238C4.43427 17.3614 4.18989 16.6093 3.70267 16.0209L0.825318 12.5458C-0.577851 10.8512 0.259953 8.27269 2.39122 7.72647L6.76163 6.60637C7.50165 6.4167 8.14145 5.95187 8.55051 5.30667L10.9663 1.49629Z" fill="#D04A02"/>
</svg>
