<?xml version="1.0" encoding="UTF-8"?>
<svg version="1.1" xmlns="http://www.w3.org/2000/svg" width="48" height="48">
<path d="M0 0 C1.59454983 -0.01652887 3.1890265 -0.04377886 4.78320312 -0.08203125 C7.0889303 -0.13704341 9.39292205 -0.15871051 11.69921875 -0.17333984 C12.40568542 -0.19600922 13.1121521 -0.21867859 13.84002686 -0.24203491 C17.71614173 -0.22563966 20.12202507 0.35731264 23.08691406 2.7578125 C28.2366889 7.96149629 26.94984542 14.77214221 27.00244141 21.69775391 C27.01897028 23.29230374 27.04622026 24.8867804 27.08447266 26.48095703 C27.13948482 28.78668421 27.16115192 31.09067595 27.17578125 33.39697266 C27.19845062 34.10343933 27.22112 34.80990601 27.24447632 35.53778076 C27.22808107 39.41389564 26.64512876 41.81977898 24.24462891 44.78466797 C19.04094512 49.93444281 12.23029919 48.64759933 5.3046875 48.70019531 C3.71013767 48.71672418 2.115661 48.74397417 0.52148438 48.78222656 C-1.7842428 48.83723873 -4.08823455 48.85890583 -6.39453125 48.87353516 C-7.10099792 48.89620453 -7.8074646 48.9188739 -8.53533936 48.94223022 C-12.41145423 48.92583498 -14.81733757 48.34288267 -17.78222656 45.94238281 C-22.9320014 40.73869903 -21.64515792 33.9280531 -21.69775391 27.00244141 C-21.71428278 25.40789158 -21.74153276 23.81341491 -21.77978516 22.21923828 C-21.83479732 19.9135111 -21.85646442 17.60951936 -21.87109375 15.30322266 C-21.89376312 14.59675598 -21.9164325 13.89028931 -21.93978882 13.16241455 C-21.92339357 9.28629967 -21.34044126 6.88041633 -18.93994141 3.91552734 C-13.73625762 -1.23424749 -6.92561169 0.05259598 0 0 Z " fill="#E5E7EC" transform="translate(21.34765625,-0.35009765625)"/>
<path d="M0 0 C4.11024 1.81615256 6.79472499 4.07951109 9 8 C9.7794533 13.22784838 9.87123577 17.49786937 7.1875 22.125 C3.61819736 25.18440227 -0.01850947 25.53555722 -4.5703125 25.4609375 C-8.42813545 24.72906755 -10.75539963 22.92401319 -13.51171875 20.1953125 C-15.73304644 16.9187084 -15.98118952 14.3375795 -15.671875 10.44140625 C-14.55256923 6.37416144 -12.17757597 3.6918843 -9 1 C-5.93570224 -0.53214888 -3.3834358 -0.22938548 0 0 Z " fill="#7F66BE" transform="translate(27,12)"/>
<path d="M0 0 C4.09564624 1.80970415 6.54485784 4.27182116 9 8 C9 9.32 9 10.64 9 12 C1.08 12 -6.84 12 -15 12 C-13.94474001 5.66844005 -13.58285055 4.73912102 -8.96875 1.13671875 C-5.82518918 -0.67831339 -3.52333538 -0.58722256 0 0 Z " fill="#6441BA" transform="translate(27,12)"/>
<path d="M0 0 C3.70826651 -0.05837668 7.4164137 -0.09372277 11.125 -0.125 C12.69507813 -0.15013672 12.69507813 -0.15013672 14.296875 -0.17578125 C19.59269336 -0.20929909 24.0571059 -0.17213685 29 2 C29.33 3.65 29.66 5.3 30 7 C23.8323971 8.09857724 17.81584877 8.11539104 11.5625 8.0625 C10.54478516 8.05798828 9.52707031 8.05347656 8.47851562 8.04882812 C5.98561491 8.03712437 3.49283926 8.02072848 1 8 C0.40267181 5.23735711 0 2.83967231 0 0 Z " fill="#F8F9FA" transform="translate(16,1)"/>
<path d="M0 0 C1.32 0 2.64 0 4 0 C4.28875 1.11375 4.5775 2.2275 4.875 3.375 C5.69241329 7.00291092 5.69241329 7.00291092 8 9 C11.54241846 9.32800171 14.08022518 9.44745802 17.3125 7.875 C19.48993358 5.45562935 20.1690807 3.11594739 21 0 C21.99 0 22.98 0 24 0 C24.32150943 4.09924523 24.41384837 6.34355086 22.1875 9.875 C18.71938671 13.24402434 15.08276942 13.52233052 10.4296875 13.4765625 C5.85524264 12.57932412 2.74047426 9.6612736 0 6 C-0.5 2.5625 -0.5 2.5625 0 0 Z " fill="#B3AAD3" transform="translate(12,24)"/>
<path d="M0 0 C0.66 0 1.32 0 2 0 C2.309375 1.5778125 2.309375 1.5778125 2.625 3.1875 C3.64900582 6.66205769 5.18205346 8.9064048 8.15234375 11.125 C11.63430023 12.77396036 15.2594435 12.64609612 19 12 C22.27827908 10.7184909 22.95851875 10.06222187 25 7 C25.39387788 4.67612053 25.73486085 2.34206251 26 0 C26.66 0 27.32 0 28 0 C28.81894688 6.66856749 28.81894688 6.66856749 26.7578125 10.01953125 C22.99736981 14.13522313 19.42929824 15.94689793 14.015625 17.1015625 C12 17 12 17 10.38671875 15.57421875 C9.92910156 15.05472656 9.47148437 14.53523438 9 14 C8.195625 13.731875 7.39125 13.46375 6.5625 13.1875 C2.95999714 11.51804745 1.81011002 9.48613782 0 6 C-0.25 2.625 -0.25 2.625 0 0 Z " fill="#C8C5DD" transform="translate(10,24)"/>
<path d="M0 0 C0.99 0 1.98 0 3 0 C3.28875 1.11375 3.5775 2.2275 3.875 3.375 C4.69241329 7.00291092 4.69241329 7.00291092 7 9 C10.54241846 9.32800171 13.08022518 9.44745802 16.3125 7.875 C18.48993358 5.45562935 19.1690807 3.11594739 20 0 C20.33 0 20.66 0 21 0 C21.375 3.25 21.375 3.25 21 7 C17.80226776 10.19773224 14.91917827 11.28851435 10.5 11.625 C6.9522845 11.46292163 5.05968219 10.71151775 2.4375 8.3125 C0.471713 6.03262031 0.02575071 5.19742207 -0.375 2.125 C-0.25125 1.42375 -0.1275 0.7225 0 0 Z " fill="#9E8FCA" transform="translate(13,24)"/>
<path d="M0 0 C0.99 1.485 0.99 1.485 2 3 C4.35956592 5.9494574 5.3097519 6.91717023 9.125 7.375 C12.12575284 7.280721 12.12575284 7.280721 14 5 C14.16687448 2.41645782 14.16687448 2.41645782 14 0 C14.99 0 15.98 0 17 0 C16.74624791 3.72169726 16.39626084 5.55712024 13.875 8.375 C10.21915866 10.4413451 8.13729813 10.67701242 4 10 C1.15751732 7.449054 0.08981203 6.0103853 -0.25 2.1875 C-0.1675 1.465625 -0.085 0.74375 0 0 Z " fill="#8D79C3" transform="translate(16,24)"/>
</svg>
