<svg width="56" height="56" viewBox="0 0 56 56" fill="none" xmlns="http://www.w3.org/2000/svg">
<rect x="4" y="4" width="48" height="48" rx="24" fill="#FFDAB9"/>
<rect x="4" y="4" width="48" height="48" rx="24" stroke="#FFF0E0" stroke-width="8"/>
<path d="M32 20H34C34.5304 20 35.0391 20.2107 35.4142 20.5858C35.7893 20.9609 36 21.4696 36 22V36C36 36.5304 35.7893 37.0391 35.4142 37.4142C35.0391 37.7893 34.5304 38 34 38H22C21.4696 38 20.9609 37.7893 20.5858 37.4142C20.2107 37.0391 20 36.5304 20 36V22C20 21.4696 20.2107 20.9609 20.5858 20.5858C20.9609 20.2107 21.4696 20 22 20H24M25 18H31C31.5523 18 32 18.4477 32 19V21C32 21.5523 31.5523 22 31 22H25C24.4477 22 24 21.5523 24 21V19C24 18.4477 24.4477 18 25 18Z" stroke="#D04A02" stroke-width="2" stroke-linecap="round" stroke-linejoin="round"/>
</svg>
